<mxfile host="app.diagrams.net" modified="2024-03-06T17:45:11.997Z" agent="Mozilla/5.0 (X11; Linux x86_64; rv:123.0) Gecko/20100101 Firefox/123.0" etag="8fLkGaMx2fXpilt8K_qt" version="24.0.2" type="device">
  <diagram name="Page-1" id="qqFZBFTKCw4WBguNHb2U">
    <mxGraphModel dx="1434" dy="1862" grid="1" gridSize="10" guides="1" tooltips="1" connect="1" arrows="1" fold="1" page="1" pageScale="1" pageWidth="850" pageHeight="1100" math="0" shadow="0">
      <root>
        <mxCell id="0" />
        <mxCell id="1" parent="0" />
        <mxCell id="5sCUnq7Ozu3sFsuHQet4-19" style="rounded=0;orthogonalLoop=1;jettySize=auto;html=1;entryX=0;entryY=0.5;entryDx=0;entryDy=0;" edge="1" parent="1" source="5sCUnq7Ozu3sFsuHQet4-1" target="5sCUnq7Ozu3sFsuHQet4-12">
          <mxGeometry relative="1" as="geometry" />
        </mxCell>
        <mxCell id="5sCUnq7Ozu3sFsuHQet4-1" value="Actor" style="shape=umlActor;verticalLabelPosition=bottom;verticalAlign=top;html=1;outlineConnect=0;" vertex="1" parent="1">
          <mxGeometry x="90" y="312.5" width="30" height="60" as="geometry" />
        </mxCell>
        <mxCell id="5sCUnq7Ozu3sFsuHQet4-7" value="App Esport" style="swimlane;whiteSpace=wrap;html=1;" vertex="1" parent="1">
          <mxGeometry x="160" y="-20" width="730" height="740" as="geometry" />
        </mxCell>
        <mxCell id="5sCUnq7Ozu3sFsuHQet4-12" value="Search sport category" style="ellipse;whiteSpace=wrap;html=1;" vertex="1" parent="5sCUnq7Ozu3sFsuHQet4-7">
          <mxGeometry x="40" y="360" width="140" height="65" as="geometry" />
        </mxCell>
        <mxCell id="5sCUnq7Ozu3sFsuHQet4-58" style="rounded=0;orthogonalLoop=1;jettySize=auto;html=1;entryX=0.5;entryY=1;entryDx=0;entryDy=0;" edge="1" parent="5sCUnq7Ozu3sFsuHQet4-7" source="5sCUnq7Ozu3sFsuHQet4-14" target="5sCUnq7Ozu3sFsuHQet4-54">
          <mxGeometry relative="1" as="geometry" />
        </mxCell>
        <mxCell id="5sCUnq7Ozu3sFsuHQet4-14" value="Select Match" style="ellipse;whiteSpace=wrap;html=1;" vertex="1" parent="5sCUnq7Ozu3sFsuHQet4-7">
          <mxGeometry x="280" y="287.5" width="140" height="65" as="geometry" />
        </mxCell>
        <mxCell id="5sCUnq7Ozu3sFsuHQet4-15" value="Select League" style="ellipse;whiteSpace=wrap;html=1;" vertex="1" parent="5sCUnq7Ozu3sFsuHQet4-7">
          <mxGeometry x="540" y="320" width="120" height="72.5" as="geometry" />
        </mxCell>
        <mxCell id="5sCUnq7Ozu3sFsuHQet4-16" value="&lt;div&gt;Select Player&lt;/div&gt;" style="ellipse;whiteSpace=wrap;html=1;" vertex="1" parent="5sCUnq7Ozu3sFsuHQet4-7">
          <mxGeometry x="250" y="470" width="140" height="65" as="geometry" />
        </mxCell>
        <mxCell id="5sCUnq7Ozu3sFsuHQet4-22" value="Select Region" style="ellipse;whiteSpace=wrap;html=1;" vertex="1" parent="5sCUnq7Ozu3sFsuHQet4-7">
          <mxGeometry x="450" y="390" width="120" height="80" as="geometry" />
        </mxCell>
        <mxCell id="5sCUnq7Ozu3sFsuHQet4-23" value="" style="endArrow=none;dashed=1;html=1;dashPattern=1 3;strokeWidth=2;rounded=0;exitX=0;exitY=0;exitDx=0;exitDy=0;entryX=0.5;entryY=1;entryDx=0;entryDy=0;startArrow=classic;startFill=1;endFill=0;" edge="1" parent="5sCUnq7Ozu3sFsuHQet4-7" source="5sCUnq7Ozu3sFsuHQet4-22" target="5sCUnq7Ozu3sFsuHQet4-14">
          <mxGeometry width="50" height="50" relative="1" as="geometry">
            <mxPoint x="230" y="340" as="sourcePoint" />
            <mxPoint x="280" y="290" as="targetPoint" />
          </mxGeometry>
        </mxCell>
        <mxCell id="5sCUnq7Ozu3sFsuHQet4-27" value="Include" style="edgeLabel;html=1;align=center;verticalAlign=middle;resizable=0;points=[];" vertex="1" connectable="0" parent="5sCUnq7Ozu3sFsuHQet4-23">
          <mxGeometry x="0.3292" y="1" relative="1" as="geometry">
            <mxPoint as="offset" />
          </mxGeometry>
        </mxCell>
        <mxCell id="5sCUnq7Ozu3sFsuHQet4-25" value="" style="endArrow=none;dashed=1;html=1;dashPattern=1 3;strokeWidth=2;rounded=0;exitX=0;exitY=0.5;exitDx=0;exitDy=0;entryX=1;entryY=0.5;entryDx=0;entryDy=0;startArrow=classic;startFill=1;endFill=0;" edge="1" parent="5sCUnq7Ozu3sFsuHQet4-7" source="5sCUnq7Ozu3sFsuHQet4-15" target="5sCUnq7Ozu3sFsuHQet4-14">
          <mxGeometry width="50" height="50" relative="1" as="geometry">
            <mxPoint x="608" y="249.5" as="sourcePoint" />
            <mxPoint x="530" y="192.5" as="targetPoint" />
          </mxGeometry>
        </mxCell>
        <mxCell id="5sCUnq7Ozu3sFsuHQet4-26" value="Include" style="edgeLabel;html=1;align=center;verticalAlign=middle;resizable=0;points=[];" vertex="1" connectable="0" parent="5sCUnq7Ozu3sFsuHQet4-25">
          <mxGeometry x="0.215" y="-1" relative="1" as="geometry">
            <mxPoint as="offset" />
          </mxGeometry>
        </mxCell>
        <mxCell id="5sCUnq7Ozu3sFsuHQet4-28" value="" style="endArrow=none;dashed=1;html=1;dashPattern=1 3;strokeWidth=2;rounded=0;exitX=0;exitY=1;exitDx=0;exitDy=0;entryX=1;entryY=0.5;entryDx=0;entryDy=0;startArrow=classic;startFill=1;endFill=0;" edge="1" parent="5sCUnq7Ozu3sFsuHQet4-7" source="5sCUnq7Ozu3sFsuHQet4-22" target="5sCUnq7Ozu3sFsuHQet4-16">
          <mxGeometry width="50" height="50" relative="1" as="geometry">
            <mxPoint x="578" y="282" as="sourcePoint" />
            <mxPoint x="430" y="235" as="targetPoint" />
          </mxGeometry>
        </mxCell>
        <mxCell id="5sCUnq7Ozu3sFsuHQet4-29" value="Include" style="edgeLabel;html=1;align=center;verticalAlign=middle;resizable=0;points=[];" vertex="1" connectable="0" parent="5sCUnq7Ozu3sFsuHQet4-28">
          <mxGeometry x="0.3292" y="1" relative="1" as="geometry">
            <mxPoint as="offset" />
          </mxGeometry>
        </mxCell>
        <mxCell id="5sCUnq7Ozu3sFsuHQet4-32" value="" style="endArrow=classic;html=1;rounded=0;exitX=1;exitY=0.5;exitDx=0;exitDy=0;entryX=0;entryY=0.5;entryDx=0;entryDy=0;" edge="1" parent="5sCUnq7Ozu3sFsuHQet4-7" source="5sCUnq7Ozu3sFsuHQet4-12" target="5sCUnq7Ozu3sFsuHQet4-14">
          <mxGeometry width="50" height="50" relative="1" as="geometry">
            <mxPoint x="340" y="255" as="sourcePoint" />
            <mxPoint x="290" y="290" as="targetPoint" />
          </mxGeometry>
        </mxCell>
        <mxCell id="5sCUnq7Ozu3sFsuHQet4-33" value="" style="endArrow=classic;html=1;rounded=0;exitX=1;exitY=0.5;exitDx=0;exitDy=0;entryX=0;entryY=0.5;entryDx=0;entryDy=0;" edge="1" parent="5sCUnq7Ozu3sFsuHQet4-7" source="5sCUnq7Ozu3sFsuHQet4-12" target="5sCUnq7Ozu3sFsuHQet4-16">
          <mxGeometry width="50" height="50" relative="1" as="geometry">
            <mxPoint x="340" y="255" as="sourcePoint" />
            <mxPoint x="400" y="153" as="targetPoint" />
          </mxGeometry>
        </mxCell>
        <mxCell id="5sCUnq7Ozu3sFsuHQet4-40" value="&lt;div&gt;Select Team&lt;/div&gt;" style="ellipse;whiteSpace=wrap;html=1;" vertex="1" parent="5sCUnq7Ozu3sFsuHQet4-7">
          <mxGeometry x="450" y="550" width="120" height="72.5" as="geometry" />
        </mxCell>
        <mxCell id="5sCUnq7Ozu3sFsuHQet4-43" value="" style="endArrow=none;dashed=1;html=1;dashPattern=1 3;strokeWidth=2;rounded=0;exitX=0;exitY=0;exitDx=0;exitDy=0;entryX=1;entryY=1;entryDx=0;entryDy=0;startArrow=classic;startFill=1;endFill=0;" edge="1" parent="5sCUnq7Ozu3sFsuHQet4-7" source="5sCUnq7Ozu3sFsuHQet4-40" target="5sCUnq7Ozu3sFsuHQet4-16">
          <mxGeometry width="50" height="50" relative="1" as="geometry">
            <mxPoint x="488" y="338" as="sourcePoint" />
            <mxPoint x="410" y="383" as="targetPoint" />
          </mxGeometry>
        </mxCell>
        <mxCell id="5sCUnq7Ozu3sFsuHQet4-44" value="Include" style="edgeLabel;html=1;align=center;verticalAlign=middle;resizable=0;points=[];" vertex="1" connectable="0" parent="5sCUnq7Ozu3sFsuHQet4-43">
          <mxGeometry x="0.3292" y="1" relative="1" as="geometry">
            <mxPoint as="offset" />
          </mxGeometry>
        </mxCell>
        <mxCell id="5sCUnq7Ozu3sFsuHQet4-45" value="Scoreboard" style="ellipse;whiteSpace=wrap;html=1;" vertex="1" parent="5sCUnq7Ozu3sFsuHQet4-7">
          <mxGeometry x="570" y="240" width="120" height="70" as="geometry" />
        </mxCell>
        <mxCell id="5sCUnq7Ozu3sFsuHQet4-48" value="" style="endArrow=none;dashed=1;html=1;dashPattern=1 3;strokeWidth=2;rounded=0;exitX=1;exitY=0;exitDx=0;exitDy=0;entryX=0;entryY=0.5;entryDx=0;entryDy=0;startArrow=classic;startFill=1;endFill=0;" edge="1" parent="5sCUnq7Ozu3sFsuHQet4-7" source="5sCUnq7Ozu3sFsuHQet4-14" target="5sCUnq7Ozu3sFsuHQet4-45">
          <mxGeometry width="50" height="50" relative="1" as="geometry">
            <mxPoint x="159" y="127.5" as="sourcePoint" />
            <mxPoint x="81" y="172.5" as="targetPoint" />
          </mxGeometry>
        </mxCell>
        <mxCell id="5sCUnq7Ozu3sFsuHQet4-49" value="Extend" style="edgeLabel;html=1;align=center;verticalAlign=middle;resizable=0;points=[];" vertex="1" connectable="0" parent="5sCUnq7Ozu3sFsuHQet4-48">
          <mxGeometry x="0.3292" y="1" relative="1" as="geometry">
            <mxPoint as="offset" />
          </mxGeometry>
        </mxCell>
        <mxCell id="5sCUnq7Ozu3sFsuHQet4-57" style="rounded=0;orthogonalLoop=1;jettySize=auto;html=1;entryX=0.5;entryY=0;entryDx=0;entryDy=0;startArrow=classic;startFill=1;endArrow=none;endFill=0;" edge="1" parent="5sCUnq7Ozu3sFsuHQet4-7" source="5sCUnq7Ozu3sFsuHQet4-53" target="5sCUnq7Ozu3sFsuHQet4-14">
          <mxGeometry relative="1" as="geometry" />
        </mxCell>
        <mxCell id="5sCUnq7Ozu3sFsuHQet4-53" value="See odds" style="ellipse;whiteSpace=wrap;html=1;" vertex="1" parent="5sCUnq7Ozu3sFsuHQet4-7">
          <mxGeometry x="550" y="170" width="140" height="65" as="geometry" />
        </mxCell>
        <mxCell id="5sCUnq7Ozu3sFsuHQet4-54" value="Watch Live" style="ellipse;whiteSpace=wrap;html=1;" vertex="1" parent="5sCUnq7Ozu3sFsuHQet4-7">
          <mxGeometry x="295" y="80" width="140" height="65" as="geometry" />
        </mxCell>
        <mxCell id="5sCUnq7Ozu3sFsuHQet4-37" style="rounded=0;orthogonalLoop=1;jettySize=auto;html=1;entryX=1;entryY=0.5;entryDx=0;entryDy=0;" edge="1" parent="1" source="5sCUnq7Ozu3sFsuHQet4-9" target="5sCUnq7Ozu3sFsuHQet4-15">
          <mxGeometry relative="1" as="geometry" />
        </mxCell>
        <mxCell id="5sCUnq7Ozu3sFsuHQet4-38" style="rounded=0;orthogonalLoop=1;jettySize=auto;html=1;entryX=1;entryY=0.5;entryDx=0;entryDy=0;" edge="1" parent="1" source="5sCUnq7Ozu3sFsuHQet4-9" target="5sCUnq7Ozu3sFsuHQet4-22">
          <mxGeometry relative="1" as="geometry" />
        </mxCell>
        <mxCell id="5sCUnq7Ozu3sFsuHQet4-62" style="rounded=0;orthogonalLoop=1;jettySize=auto;html=1;entryX=1;entryY=0.5;entryDx=0;entryDy=0;" edge="1" parent="1" source="5sCUnq7Ozu3sFsuHQet4-9" target="5sCUnq7Ozu3sFsuHQet4-45">
          <mxGeometry relative="1" as="geometry" />
        </mxCell>
        <mxCell id="5sCUnq7Ozu3sFsuHQet4-9" value="API" style="shape=umlActor;verticalLabelPosition=bottom;verticalAlign=top;html=1;outlineConnect=0;gradientColor=default;fillColor=none;" vertex="1" parent="1">
          <mxGeometry x="1010" y="230" width="30" height="60" as="geometry" />
        </mxCell>
        <mxCell id="5sCUnq7Ozu3sFsuHQet4-41" style="rounded=0;orthogonalLoop=1;jettySize=auto;html=1;entryX=0.992;entryY=0.4;entryDx=0;entryDy=0;entryPerimeter=0;" edge="1" parent="1" source="5sCUnq7Ozu3sFsuHQet4-9" target="5sCUnq7Ozu3sFsuHQet4-40">
          <mxGeometry relative="1" as="geometry" />
        </mxCell>
        <mxCell id="5sCUnq7Ozu3sFsuHQet4-56" style="rounded=0;orthogonalLoop=1;jettySize=auto;html=1;entryX=1;entryY=0.5;entryDx=0;entryDy=0;" edge="1" parent="1" source="5sCUnq7Ozu3sFsuHQet4-55" target="5sCUnq7Ozu3sFsuHQet4-54">
          <mxGeometry relative="1" as="geometry" />
        </mxCell>
        <mxCell id="5sCUnq7Ozu3sFsuHQet4-60" style="rounded=0;orthogonalLoop=1;jettySize=auto;html=1;entryX=1;entryY=0.5;entryDx=0;entryDy=0;exitX=0;exitY=0.3333333333333333;exitDx=0;exitDy=0;exitPerimeter=0;" edge="1" parent="1" source="5sCUnq7Ozu3sFsuHQet4-9" target="5sCUnq7Ozu3sFsuHQet4-53">
          <mxGeometry relative="1" as="geometry" />
        </mxCell>
        <mxCell id="5sCUnq7Ozu3sFsuHQet4-55" value="&lt;div&gt;Streaming Channel&lt;/div&gt;" style="shape=umlActor;verticalLabelPosition=bottom;verticalAlign=top;html=1;outlineConnect=0;" vertex="1" parent="1">
          <mxGeometry x="1020" y="82.5" width="30" height="60" as="geometry" />
        </mxCell>
      </root>
    </mxGraphModel>
  </diagram>
</mxfile>
